<svg id="Capa_1" enable-background="new 0 0 512 512" height="512" viewBox="0 0 512 512" width="512" xmlns="http://www.w3.org/2000/svg"><g><g><path d="m256 10c-136.597 0-246 110.617-246 246 0 135.98 110.04 246 246 246 135.98 0 246-110.04 246-246 0-135.388-109.455-246-246-246z" fill="#ffed99"/><path d="m142.83 336c9.83 27.81 29.62 50.91 55.07 65.01h116.2c25.45-14.1 45.24-37.2 55.07-65.01z" fill="#a57e63"/><path d="m276 156h160c0 55.23-35.82 100-80 100-45.283 0-80-46.097-80-100z" fill="#a57e63"/><path d="m136 296h240c0 14.03-2.41 27.49-6.83 40h-226.34c-4.42-12.51-6.83-25.97-6.83-40z" fill="#fff5f5"/><path d="m256 376c22.88 0 43.52 9.61 58.1 25.01-17.21 9.56-37.02 14.99-58.1 14.99s-40.89-5.43-58.1-14.99c14.58-15.4 35.22-25.01 58.1-25.01z" fill="#ff7d97"/><path d="m76 156h160c0 52.502-33.673 100-80 100-44.18 0-80-44.77-80-100z" fill="#a57e63"/></g><g><path d="m496 166c5.523 0 10-4.477 10-10s-4.477-10-10-10h-8.755c-42.293-88.907-132.34-146-231.245-146-98.907 0-188.957 57.093-231.254 146h-8.746c-5.523 0-10 4.477-10 10s4.477 10 10 10h.255c-10.782 28.693-16.255 58.894-16.255 90 0 52.164 15.56 102.336 44.997 145.091 3.133 4.55 9.36 5.697 13.908 2.566 4.549-3.132 5.698-9.359 2.566-13.908-27.131-39.404-41.471-85.654-41.471-133.749 0-31.237 5.966-61.48 17.736-90h28.642c3.887 53.11 40.108 100 89.623 100 32.881 0 62.69-21.458 78.592-56.276 5.863-2.383 13.459-3.724 21.407-3.724s15.543 1.341 21.408 3.723c15.901 34.818 45.71 56.277 78.592 56.277 50.436 0 85.817-47.996 89.623-100h28.634c11.775 28.504 17.743 58.747 17.743 90 0 130.131-105.869 236-236 236-48.094 0-94.344-14.34-133.749-41.47-4.549-3.134-10.776-1.984-13.908 2.565s-1.983 10.775 2.566 13.908c42.757 29.437 92.928 44.997 145.091 44.997 141.582 0 256-114.384 256-256 0-31.12-5.475-61.323-16.26-90zm-240-146c87.954 0 168.307 48.971 208.881 126h-417.771c40.575-77.028 120.933-126 208.89-126zm-100 226c-35.969 0-65.684-35.063-69.566-80.01h139.121c-4.06 46.494-34.848 80.01-69.555 80.01zm86.386-58.953c1.642-6.843 2.733-13.869 3.253-21.047h20.722c.52 7.179 1.611 14.204 3.253 21.047-4.367-.688-8.941-1.047-13.614-1.047s-9.247.359-13.614 1.047zm113.614 58.953c-34.065 0-65.431-32.784-69.556-80.01h139.121c-3.881 44.947-33.596 80.01-69.565 80.01z"/><path d="m256 426c72.242 0 130-58.575 130-130 0-5.523-4.477-10-10-10h-240c-5.523 0-10 4.477-10 10 0 71.514 57.878 130 130 130zm-39.962-27.507c11.62-8.127 25.407-12.493 39.962-12.493 14.549 0 28.329 4.362 39.958 12.495-12.659 4.929-26.24 7.505-39.958 7.505-13.719 0-27.299-2.576-39.962-7.507zm99.476-10.007c-16.429-14.553-37.271-22.486-59.514-22.486-22.25 0-43.099 7.938-59.516 22.485-16.413-10.565-29.673-25.218-38.486-42.495h196.004c-8.813 17.276-22.071 31.928-38.488 42.496zm50.038-82.486c-.611 6.785-1.847 13.469-3.694 20h-211.716c-1.847-6.531-3.084-13.215-3.694-20z"/><circle cx="82" cy="430" r="10"/></g></g></svg>